<svg width="29" height="29" viewBox="0 0 29 29" fill="none" xmlns="http://www.w3.org/2000/svg">
<circle cx="18.2751" cy="15.2293" r="5.07643" fill="white"/>
<path fill-rule="evenodd" clip-rule="evenodd" d="M4.22914 12.236C4.22914 6.78094 8.87383 2.37183 14.4921 2.37183C20.1261 2.37183 24.7708 6.78094 24.7708 12.236C24.7708 14.9849 23.7522 17.5369 22.0756 19.7C20.226 22.086 17.9463 24.1648 15.3803 25.7966C14.793 26.1737 14.263 26.2022 13.6184 25.7966C11.0378 24.1648 8.75808 22.086 6.92433 19.7C5.24654 17.5369 4.22914 14.9849 4.22914 12.236ZM11.1096 12.5432C11.1096 14.3706 12.629 15.8079 14.492 15.8079C16.3562 15.8079 17.8902 14.3706 17.8902 12.5432C17.8902 10.7299 16.3562 9.22268 14.492 9.22268C12.629 9.22268 11.1096 10.7299 11.1096 12.5432Z" fill="#FC6969"/>
</svg>
