<svg width="29" height="29" viewBox="0 0 29 29" fill="none" xmlns="http://www.w3.org/2000/svg">
<circle cx="18.2752" cy="15.2293" r="5.07643" fill="white"/>
<path fill-rule="evenodd" clip-rule="evenodd" d="M4.22921 12.236C4.22921 6.78095 8.8739 2.37183 14.4921 2.37183C20.1262 2.37183 24.7709 6.78095 24.7709 12.236C24.7709 14.9849 23.7523 17.5369 22.0757 19.7C20.2261 22.086 17.9464 24.1648 15.3804 25.7966C14.7931 26.1737 14.2631 26.2022 13.6185 25.7966C11.0379 24.1648 8.75815 22.086 6.9244 19.7C5.2466 17.5369 4.22921 14.9849 4.22921 12.236ZM11.1097 12.5432C11.1097 14.3706 12.6291 15.8079 14.4921 15.8079C16.3563 15.8079 17.8903 14.3706 17.8903 12.5432C17.8903 10.73 16.3563 9.22269 14.4921 9.22269C12.6291 9.22269 11.1097 10.73 11.1097 12.5432Z" fill="#68A2D8"/>
</svg>
