<svg width="12" height="14" viewBox="0 0 12 14" fill="none" xmlns="http://www.w3.org/2000/svg">
<path fill-rule="evenodd" clip-rule="evenodd" d="M3.6583 0H8.26477C10.288 0 11.9231 0.748971 11.9455 2.6529V13.2785C11.9455 13.3975 11.9156 13.5165 11.8559 13.6215C11.7588 13.7895 11.5946 13.9155 11.393 13.9715C11.1989 14.0275 10.9824 13.9995 10.8032 13.9015L5.96527 11.6336L1.11989 13.9015C1.00865 13.9568 0.880979 13.9925 0.754058 13.9925C0.335966 13.9925 0 13.6705 0 13.2785V2.6529C0 0.748971 1.6425 0 3.6583 0ZM3.15062 5.33379H8.77245C9.09349 5.33379 9.3548 5.0881 9.3548 4.78081C9.3548 4.47282 9.09349 4.22783 8.77245 4.22783H3.15062C2.82958 4.22783 2.56828 4.47282 2.56828 4.78081C2.56828 5.0881 2.82958 5.33379 3.15062 5.33379Z" fill="#68BAD1"/>
</svg>
